<svg id="visual" viewBox="0 0 900 600" width="900" height="600" xmlns="http://www.w3.org/2000/svg" xmlns:xlink="http://www.w3.org/1999/xlink" version="1.1"><rect x="0" y="0" width="900" height="600" fill="#000000"></rect><defs><linearGradient id="grad1_0" x1="33.3%" y1="0%" x2="100%" y2="100%"><stop offset="20%" stop-color="#000000" stop-opacity="1"></stop><stop offset="80%" stop-color="#000000" stop-opacity="1"></stop></linearGradient></defs><defs><linearGradient id="grad2_0" x1="0%" y1="0%" x2="66.7%" y2="100%"><stop offset="20%" stop-color="#000000" stop-opacity="1"></stop><stop offset="80%" stop-color="#000000" stop-opacity="1"></stop></linearGradient></defs><g transform="translate(900, 0)"><path d="M0 351.5C-48.8 350.3 -97.7 349.1 -134.5 324.8C-171.4 300.4 -196.2 252.9 -213.5 213.5C-230.9 174.2 -240.6 142.9 -262.4 108.7C-284.1 74.4 -317.8 37.2 -351.5 0L0 0Z" fill="#0E141B"></path></g><g transform="translate(0, 600)"><path d="M0 -351.5C52.1 -352.4 104.1 -353.3 134.5 -324.8C164.9 -296.2 173.6 -238.2 204.4 -204.4C235.1 -170.5 287.8 -160.9 316 -130.9C344.2 -100.9 347.9 -50.4 351.5 0L0 0Z" fill="#0E141B"></path></g></svg>