<svg id="visual" viewBox="0 0 900 600" width="900" height="600" xmlns="http://www.w3.org/2000/svg" xmlns:xlink="http://www.w3.org/1999/xlink" version="1.1"><rect x="0" y="0" width="900" height="600" fill="#ffffff"></rect><defs><linearGradient id="grad1_0" x1="33.3%" y1="0%" x2="100%" y2="100%"><stop offset="20%" stop-color="#ffffff" stop-opacity="1"></stop><stop offset="80%" stop-color="#ffffff" stop-opacity="1"></stop></linearGradient></defs><defs><linearGradient id="grad2_0" x1="0%" y1="0%" x2="66.7%" y2="100%"><stop offset="20%" stop-color="#ffffff" stop-opacity="1"></stop><stop offset="80%" stop-color="#ffffff" stop-opacity="1"></stop></linearGradient></defs><g transform="translate(900, 0)"><path d="M0 324.5C-39.1 328.6 -78.3 332.7 -100.3 308.6C-122.3 284.6 -127.2 232.4 -152.2 209.5C-177.3 186.7 -222.4 193.3 -243.5 176.9C-264.6 160.6 -261.6 121.4 -271.1 88.1C-280.5 54.8 -302.5 27.4 -324.5 0L0 0Z" fill="#887FFA"></path></g><g transform="translate(0, 600)"><path d="M0 -324.5C33 -311.9 65.9 -299.4 91.8 -282.5C117.6 -265.5 136.4 -244.2 168.1 -231.4C199.8 -218.5 244.5 -214.1 262.5 -190.7C280.5 -167.4 271.8 -125.2 277.7 -90.2C283.6 -55.3 304 -27.6 324.5 0L0 0Z" fill="#887FFA"></path></g></svg>